<svg xmlns="http://www.w3.org/2000/svg" viewBox="0 0 1100 790" width="1100" height="790" font-family="-apple-system,Segoe UI,Helvetica,Arial,sans-serif">
  <defs>
    <marker id="a" markerWidth="9" markerHeight="9" refX="7.5" refY="3.2" orient="auto">
      <path d="M0,0 L7.5,3.2 L0,6.4 z" fill="#64748b"/>
    </marker>
    <style>
      .host{fill:#f0f9ff;stroke:#0ea5e9;stroke-width:2.5}
      .surf{fill:#eef2ff;stroke:#6366f1;stroke-width:2.5}
      .core{fill:#f0fdf4;stroke:#16a34a;stroke-width:2.5}
      .proj{fill:#f8fafc;stroke:#94a3b8;stroke-width:2.5}
      .llm{fill:#fff7ed;stroke:#ea580c;stroke-width:2.5;stroke-dasharray:6 4}
      .inner{fill:#fff;stroke:#cbd5e1;stroke-width:1.6}
      .h{font-size:22px;fill:#0f172a;font-weight:700}
      .sub{font-size:13px;fill:#475569}
      .t{font-size:14px;fill:#0f172a;font-weight:700}
      .s{font-size:11px;fill:#475569}
      .tag{font-size:11px;fill:#64748b;font-weight:700}
      .mono{font-size:10.5px;fill:#334155;font-family:ui-monospace,SFMono-Regular,Menlo,monospace}
      .ln{stroke:#64748b;stroke-width:2;fill:none;marker-end:url(#a)}
    </style>
  </defs>
  <rect width="1100" height="790" fill="#f8fafc"/>

  <text class="h" x="40" y="44">Skygraph — what sits between the agent and the repository</text>
  <text class="sub" x="40" y="70">The agent never walks the folder. It asks the graph, gets exactly what it needs, and spends its context on the work instead of on rediscovery.</text>

  <!-- host -->
  <rect class="host" x="40" y="96" width="1020" height="62" rx="10"/>
  <text class="t" x="62" y="124">Claude Code · Codex · any MCP host</text>
  <text class="s" x="62" y="144">Brings the model and does the work. Holds no index and reads no folder to build context.</text>

  <path class="ln" d="M550,158 L550,186"/>
  <text class="tag" x="564" y="178">14 read-only tools, over MCP · stdio locally, HTTP when hosted</text>

  <!-- tool surface -->
  <rect class="surf" x="40" y="190" width="1020" height="156" rx="10"/>
  <text class="t" x="62" y="216">The tool surface — shaped so the agent needs fewer round trips</text>

  <rect class="inner" x="62" y="228" width="236" height="104" rx="8"/>
  <text class="tag" x="76" y="248">FIND — before you know the name</text>
  <text class="mono" x="76" y="266">find_symbols</text>
  <text class="mono" xml:space="preserve" x="76" y="281">list_repos · list_files</text>
  <text class="mono" x="76" y="296">map_coverage</text>

  <rect class="inner" x="310" y="228" width="236" height="104" rx="8"/>
  <text class="tag" x="324" y="248">UNDERSTAND — look before you fetch</text>
  <text class="mono" xml:space="preserve" x="324" y="266">describe_symbol · expand_symbol</text>
  <text class="mono" x="324" y="281">outline_file</text>
  <text class="mono" x="324" y="296">read_source  ← the only one that</text>
  <text class="mono" x="324" y="311">              returns code text</text>

  <rect class="inner" x="558" y="228" width="236" height="104" rx="8"/>
  <text class="tag" x="572" y="248">TRAVERSE — what a grep cannot do</text>
  <text class="mono" x="572" y="266">related_symbols</text>
  <text class="mono" x="572" y="281">file_imports</text>
  <text class="mono" x="572" y="296">blast_radius</text>

  <rect class="inner" x="806" y="228" width="232" height="104" rx="8"/>
  <text class="tag" x="820" y="248">TRUST — how good is this index?</text>
  <text class="mono" x="820" y="266">repo_summary</text>
  <text class="mono" x="820" y="281">index_health</text>
  <text class="s" x="820" y="299">an agent that cannot see the gaps</text>
  <text class="s" x="820" y="313">will answer over them</text>

  <path class="ln" d="M550,346 L550,376"/>

  <!-- core -->
  <rect class="core" x="40" y="380" width="1020" height="232" rx="10"/>
  <text class="t" x="62" y="406">skygraph — the index, and how it is built</text>
  <text class="tag" x="1038" y="406" text-anchor="end">one SQLite file · yours · never leaves the machine</text>

  <rect class="inner" x="62" y="420" width="300" height="172" rx="8"/>
  <text class="t" x="78" y="442">Five ontologies</text>
  <text class="s" x="78" y="461">What may exist in the graph. Declared,</text>
  <text class="s" x="78" y="476">so nothing undeclared is ever written.</text>
  <text class="mono" x="78" y="498" xml:space="preserve">code_ontology    files, symbols, calls</text>
  <text class="mono" x="78" y="515" xml:space="preserve">data_ontology    entities, fields, keys</text>
  <text class="mono" x="78" y="532" xml:space="preserve">api_ontology     endpoints, operations</text>
  <text class="mono" x="78" y="549" xml:space="preserve">deploy_ontology  images, config, pipelines</text>
  <text class="mono" x="78" y="566" xml:space="preserve">link             the joins between them</text>
  <text class="s" x="78" y="584" font-style="italic">link is the one a text search cannot fake</text>

  <rect class="inner" x="374" y="420" width="300" height="172" rx="8"/>
  <text class="t" x="390" y="442">Three extraction tiers</text>
  <text class="s" x="390" y="461">A file is read by the best tier that</text>
  <text class="s" x="390" y="476">claims it, and drops if it cannot cope.</text>
  <text class="mono" xml:space="preserve" x="390" y="498">1 · native    a real AST parse</text>
  <text class="mono" xml:space="preserve" x="390" y="515">2 · query     declarative patterns</text>
  <text class="mono" xml:space="preserve" x="390" y="532">3 · model     optional, needs a key</text>
  <text class="s" x="390" y="552">Every row records the tier that produced</text>
  <text class="s" x="390" y="567">it. A parsed fact and a model's guess are</text>
  <text class="s" x="390" y="582">never mixed without saying which.</text>

  <rect class="inner" x="686" y="420" width="352" height="172" rx="8"/>
  <text class="t" x="702" y="442">Built once, refreshed by delta</text>
  <text class="s" x="702" y="461">Every file carries a content hash. A second run</text>
  <text class="s" x="702" y="476">reads only what changed, replaces just those rows,</text>
  <text class="s" x="702" y="491">and prunes what was deleted.</text>
  <text class="s" x="702" y="515">This is the whole economic argument. Re-indexing a</text>
  <text class="s" x="702" y="530">repository after a day's work costs the few files you</text>
  <text class="s" x="702" y="545">touched, not the repository.</text>
  <text class="mono" xml:space="preserve" x="702" y="569">indexed 3 · unchanged 1,847 · removed 1</text>

  <path class="ln" d="M550,612 L550,644"/>
  <text class="tag" x="564" y="636">read-only · the repository is never written to</text>

  <!-- project -->
  <rect class="proj" x="40" y="648" width="740" height="104" rx="10"/>
  <text class="t" x="62" y="674">The project folder the person chose</text>
  <text class="s" x="62" y="694">Source, schemas and migrations, API specs and route handlers, Dockerfiles and pipelines.</text>
  <text class="s" x="62" y="714">Whatever a tier can read becomes graph. Whatever it cannot is recorded as a gap, with the reason,</text>
  <text class="s" x="62" y="734">and `index_health` shows it — because a quiet gap is answered over rather than around.</text>

  <rect class="llm" x="796" y="648" width="264" height="112" rx="10"/>
  <text class="t" x="818" y="674">Your model key — optional</text>
  <text class="s" x="818" y="694">Only tier 3 uses it, only for files the</text>
  <text class="s" x="818" y="710">first two tiers could not read, and only</text>
  <text class="s" x="818" y="726">if you supply one. With no key skygraph</text>
  <text class="s" x="818" y="742">still works; it just knows less, and says so.</text>
</svg>
